<?xml version="1.0" encoding="utf-8"?>
<!-- Generator: Adobe Illustrator 16.0.4, SVG Export Plug-In . SVG Version: 6.00 Build 0)  -->
<!DOCTYPE svg PUBLIC "-//W3C//DTD SVG 1.1//EN" "http://www.w3.org/Graphics/SVG/1.1/DTD/svg11.dtd">
<svg version="1.1" id="Layer_1" xmlns="http://www.w3.org/2000/svg" xmlns:xlink="http://www.w3.org/1999/xlink" x="0px" y="0px"
	 width="500px" height="500px" viewBox="0 0 500 500" enable-background="new 0 0 500 500" xml:space="preserve">
<path fill="#05668D" d="M602.579,250.242c0,194.784-157.896,352.678-352.676,352.678c-194.78,0-352.679-157.895-352.679-352.678
	c0-194.776,157.898-352.673,352.679-352.673C444.683-102.431,602.579,55.465,602.579,250.242z"/>
<path fill="#05668D" d="M579.59,250.242c0,182.086-147.604,329.688-329.687,329.688S-79.787,432.328-79.787,250.242
	c0-182.08,147.607-329.685,329.689-329.685S579.59,68.162,579.59,250.242z"/>
<path fill="#028090" d="M555.135,250.242c0,168.58-136.653,305.233-305.232,305.233c-168.574,0-305.234-136.653-305.234-305.233
	c0-168.573,136.66-305.229,305.234-305.229C418.481-54.987,555.135,81.669,555.135,250.242z"/>
<circle fill="#028090" cx="249.902" cy="250.242" r="282.95"/>
<circle fill="none" stroke="#89862E" stroke-width="4" stroke-miterlimit="10" cx="249.902" cy="250.243" r="212.008"/>
<circle fill="#00A896" cx="249.902" cy="250.243" r="260.546"/>
<text transform="matrix(1 0 0 1 418.9551 262.25)" stroke="#F2AAB9" stroke-miterlimit="10" font-family="'MyriadPro-Regular'" font-size="12">F2AAB9</text>
<circle fill="#02C39A" cx="249.902" cy="250.245" r="236.337"/>
<ellipse fill="#02C39A" cx="249.902" cy="250.244" rx="215.479" ry="216.869"/>
<g>
	<circle fill="#F0F3BD" cx="248.661" cy="247.424" r="185.814"/>
	<path fill="#AA4D2D" stroke="#AA4D2D" stroke-width="2" stroke-miterlimit="10" d="M313.769,364.301c0,0,28-13.998,32-33.332
		s-24.668-25.334-4.668-22c20,3.332,40.002,44.666-27.332,84C321.769,368.969,313.769,364.301,313.769,364.301z"/>
	<path fill="#D8662E" stroke="#D8662E" stroke-width="2" stroke-miterlimit="10" d="M157.142,408.789c0,0,13-100.67,79.333-106
		c59.331-2,90.647,62.668,90.657,115.334C327.132,418.123,235.141,458.121,157.142,408.789z"/>
	<path fill="#AA4D2D" stroke="#AA4D2D" stroke-width="2" stroke-miterlimit="10" d="M317.78,441.307c0,0-12.637-5.145-10.979-23.736
		c1.908-13.885,7.725-18.053,14.771-18.762c7.045-0.709,14.426,8.381,12.307,23.721C331.763,437.869,327.454,442.17,317.78,441.307z
		"/>
	<path fill="#30B2E5" d="M157.142,357.785c0,0,106.624,9.367,134.748-36.5c-18.18-33.156-79.539-43.416-107.248,7.25
		C176.183,340.785,157.142,357.785,157.142,357.785z"/>
	<g>
		<path fill="#D8662E" stroke="#D8662E" stroke-miterlimit="10" d="M162.491,193.35c0,0-11.334-71.333,21.332-49.333
			c32.668,22,17.334,12,17.334,12s32-23.333,71.332-3.333c38-38.668,44.668-22.667,46,9.333c1.334,32-6.666,31.333-6.666,31.333
			s20.666,19.334,19.332,33.333c-1.332,14-35.334,84.668-58,94.668s-65.098,4.668-72.549,0
			c-7.449-4.666-57.631-78.002-54.541-88.002C149.157,223.35,150.491,208.683,162.491,193.35z"/>
		<path fill="#D8662E" stroke="#D8662E" stroke-miterlimit="10" d="M162.491,193.35c0,0,15.473-27.619,38.666-37.333
			s23.193-9.714,23.193-9.714l0,0"/>
		<path fill="#D8662E" stroke="#D8662E" stroke-miterlimit="10" d="M263.75,148.881c0,0,38.899,26.413,58.153,55.774"/>
		<path fill="#FFE3D7" stroke="#FFE3D7" stroke-miterlimit="10" d="M193.421,188.684c0,0,16.402-21.83,26.402-11.916
			c2.668,3.916-2.666,7.915-6,8.582C210.491,186.017,202.685,184.1,193.421,188.684z"/>
		<path fill="#FFE3D7" stroke="#FFE3D7" stroke-miterlimit="10" d="M282.97,187.305c0,0-14.055-23.41-25.026-14.584
			c-3.059,3.617,1.834,8.147,5.08,9.156C266.267,182.885,274.229,181.788,282.97,187.305z"/>
		<path fill="#3C2415" d="M196.405,204.656c0,0,1.5-10.64,12.75-10.14s9.25,9,9.25,9s1.404,10-11.422,8.75
			C194.155,211.016,196.405,204.656,196.405,204.656z"/>
		<path fill="#3C2415" d="M258.795,204.656c0,0,1.5-10.64,12.749-10.14c11.25,0.5,9.25,9,9.25,9s1.404,10-11.422,8.75
			C256.545,211.016,258.795,204.656,258.795,204.656z"/>
		<path fill="#FFFFFF" d="M199.155,204.656c0,0-2.838-3.39,4.75-6.64c6,0.25,4.5,3.32,4.5,3.32S206.155,205.545,199.155,204.656z"/>
		<path fill="#FFFFFF" d="M198.636,207.35c0,0,0.021-2,2.521-1.834c2.5,0.167,1.666,1.834,1.666,1.834s-0.053,1.166-2.027,1.166
			C198.823,208.516,198.636,207.35,198.636,207.35z"/>
		<path fill="#FFFFFF" d="M262.551,204.827c0,0-2.838-3.391,4.749-6.64c6,0.25,4.5,3.319,4.5,3.319S269.55,205.715,262.551,204.827z
			"/>
		<path fill="#FFFFFF" d="M262.031,207.52c0,0,0.021-2,2.521-1.833c2.499,0.167,1.665,1.833,1.665,1.833s-0.053,1.167-2.026,1.167
			C262.219,208.687,262.031,207.52,262.031,207.52z"/>
		<path fill="#FFE3D7" d="M160.655,245.266c0,0-22.668-40.533,27.666-32.891c32.834,10.642,51.28,32.891,51.28,32.891
			s36.054-36.408,57.554-36.579s31,16.329,16,40.829c-15,24.5-41.607,67.002-73.554,67.502S159.655,254.516,160.655,245.266z"/>
		<path fill="none" stroke="#3C2415" stroke-width="4" stroke-linecap="round" stroke-miterlimit="10" d="M186.989,243.268
			c0,0,7.668-7.168,11.5,1.832c3.834,9.002-0.832,13.67,10.5,22.002c11.334,8.334,30.167,3.666,31.167-4.168
			c0.334,9.5,22.598,8.773,26.843,6.051c1.871-1.199,4.66-4.695,7.449-13.465c2.809-8.828,8.041-18.418,11.207-18.002
			s4.5,2.584,4.5,2.584"/>
		<path fill="#3C2415" stroke="#3C2415" stroke-miterlimit="10" d="M219.085,242.232c0,0,0.158-14.666,19.827-14.539
			c19.666,0.125,18.266,15.105,18.266,15.105s-3.299,20.787-18.297,20.564C223.882,263.139,219.085,242.232,219.085,242.232z"/>
		<path fill="#FFE3D7" stroke="#D8662E" stroke-miterlimit="10" d="M175.405,179.434c0,0-9.75-36.418,7.25-26.168
			s9.766,8.5,9.766,8.5S178.655,169.602,175.405,179.434z"/>
		<path fill="#FFE3D7" stroke="#D8662E" stroke-miterlimit="10" d="M283.329,162.568c0,0,11.59,9.173,17.016,17.668
			c0,0,9.75-36.418-7.25-26.168"/>
	</g>
	<path fill="#AA4D2D" stroke="#AA4D2D" stroke-width="2" stroke-miterlimit="10" d="M161.806,433.426c0,0-13.045-4-13.045-22.666
		c0.666-14,6.09-18.668,13.045-20c6.955-1.334,15.113,7.064,14.367,22.531C175.427,428.76,171.517,433.426,161.806,433.426z"/>
</g>
</svg>
